<?xml version="1.0" encoding="UTF-8" standalone="no"?>
<svg
   xmlns:dc="http://purl.org/dc/elements/1.1/"
   xmlns:cc="http://creativecommons.org/ns#"
   xmlns:rdf="http://www.w3.org/1999/02/22-rdf-syntax-ns#"
   xmlns:svg="http://www.w3.org/2000/svg"
   xmlns="http://www.w3.org/2000/svg"
   viewBox="0 0 85.333336 85.333336"
   height="85.333336"
   width="85.333336"
   xml:space="preserve"
   id="svg2"
   version="1.1"><metadata
     id="metadata8"><rdf:RDF><cc:Work
         rdf:about=""><dc:format>image/svg+xml</dc:format><dc:type
           rdf:resource="http://purl.org/dc/dcmitype/StillImage" /></cc:Work></rdf:RDF></metadata><defs
     id="defs6"><clipPath
       id="clipPath18"
       clipPathUnits="userSpaceOnUse"><path
         id="path16"
         d="M 0,64 H 64 V 0 H 0 Z" /></clipPath></defs><g
     transform="matrix(1.3333333,0,0,-1.3333333,0,85.333333)"
     id="g10"><g
       id="g12"><g
         clip-path="url(#clipPath18)"
         id="g14"><g
           transform="translate(62.0098,18.5)"
           id="g20"><path
             id="path22"
             style="fill:#00c8c3;fill-opacity:1;fill-rule:nonzero;stroke:none"
             d="m 0,0 h -44.02 c -1.099,0 -1.99,0.891 -1.99,1.99 v 23.02 c 0,1.099 0.891,1.99 1.99,1.99 L 0,27 c 1.099,0 1.99,-0.891 1.99,-1.99 V 1.99 C 1.99,0.891 1.099,0 0,0" /></g><g
           transform="translate(41.877,24.9028)"
           id="g24"><path
             id="path26"
             style="fill:#ffffff;fill-opacity:1;fill-rule:nonzero;stroke:none"
             d="m 0,0 v -1.903 h -3.163 v 1.826 c -2.34,0.296 -4.063,1.492 -4.885,3.381 l -0.155,0.361 2.932,1.247 0.167,-0.361 c 0.398,-0.977 1.851,-1.722 3.356,-1.722 0.655,0 2.841,0.115 2.841,1.645 0,0.772 -0.964,1.26 -2.944,1.505 -2.237,0.244 -5.645,0.617 -5.645,4.268 0,2.199 1.621,3.729 4.333,4.179 v 1.671 H 0 v -1.684 c 1.286,-0.245 2.932,-0.836 3.857,-2.739 l 0.181,-0.36 -2.701,-1.247 -0.18,0.309 c -0.411,0.681 -1.684,1.234 -2.828,1.234 -0.785,0 -2.585,-0.141 -2.585,-1.363 0,-0.809 0.875,-1.054 2.7,-1.26 C 0.836,8.679 4.449,8.242 4.449,4.474 4.449,1.749 2.263,0.283 0,0" /></g><g
           transform="translate(4.5,36.2813)"
           id="g28"><path
             id="path30"
             style="fill:#00c8c3;fill-opacity:1;fill-rule:nonzero;stroke:none"
             d="M 0,0 H 7 C 7.829,0 8.5,0.671 8.5,1.5 8.5,2.329 7.829,3 7,3 H 0 C -0.829,3 -1.5,2.329 -1.5,1.5 -1.5,0.671 -0.829,0 0,0" /></g><g
           transform="translate(1.5,30.2813)"
           id="g32"><path
             id="path34"
             style="fill:#00c8c3;fill-opacity:1;fill-rule:nonzero;stroke:none"
             d="m 0,0 h 10 c 0.829,0 1.5,0.671 1.5,1.5 C 11.5,2.329 10.829,3 10,3 H 0 C -0.829,3 -1.5,2.329 -1.5,1.5 -1.5,0.671 -0.829,0 0,0" /></g><g
           transform="translate(8.5,24.2813)"
           id="g36"><path
             id="path38"
             style="fill:#00c8c3;fill-opacity:1;fill-rule:nonzero;stroke:none"
             d="M 0,0 H 3 C 3.829,0 4.5,0.671 4.5,1.5 4.5,2.329 3.829,3 3,3 H 0 C -0.829,3 -1.5,2.329 -1.5,1.5 -1.5,0.671 -0.829,0 0,0" /></g></g></g></g></svg>