<svg id="Layer_1" data-name="Layer 1" xmlns="http://www.w3.org/2000/svg" viewBox="0 0 64 64"><defs><style>.cls-1{fill:#00c8c3;}</style></defs><title>icon</title><polygon class="cls-1" points="61 7 61 12 54 12 54 19 49 19 49 12 42 12 42 7 49 7 49 0 54 0 54 7 61 7"/><path class="cls-1" d="M36,12.69a12,12,0,1,0-12,12A12,12,0,0,0,36,12.69Z"/><path class="cls-1" d="M44,33.38A8.35,8.35,0,0,0,35.88,24h-.35a15,15,0,0,1-23.06,0h-.35a8.35,8.35,0,0,0-8.07,9.38L5.31,45.67C6.34,55.42,14.23,63,23.8,63h.4c9.57,0,17.46-7.58,18.49-17.33Z"/></svg>