<?xml version="1.0" encoding="UTF-8" standalone="no"?>
<svg
   xmlns:dc="http://purl.org/dc/elements/1.1/"
   xmlns:cc="http://creativecommons.org/ns#"
   xmlns:rdf="http://www.w3.org/1999/02/22-rdf-syntax-ns#"
   xmlns:svg="http://www.w3.org/2000/svg"
   xmlns="http://www.w3.org/2000/svg"
   viewBox="0 0 85.333336 85.333336"
   height="85.333336"
   width="85.333336"
   xml:space="preserve"
   id="svg2"
   version="1.1"><metadata
     id="metadata8"><rdf:RDF><cc:Work
         rdf:about=""><dc:format>image/svg+xml</dc:format><dc:type
           rdf:resource="http://purl.org/dc/dcmitype/StillImage" /></cc:Work></rdf:RDF></metadata><defs
     id="defs6"><clipPath
       id="clipPath18"
       clipPathUnits="userSpaceOnUse"><path
         id="path16"
         d="M 0,64 H 64 V 0 H 0 Z" /></clipPath></defs><g
     transform="matrix(1.3333333,0,0,-1.3333333,0,85.333333)"
     id="g10"><g
       id="g12"><g
         clip-path="url(#clipPath18)"
         id="g14"><g
           transform="translate(34,7.5879)"
           id="g20"><path
             id="path22"
             style="fill:#00c8c3;fill-opacity:1;fill-rule:nonzero;stroke:none"
             d="m 0,0 v 5.52 c 8.544,0.898 15.396,7.487 16.739,15.892 H 22.31 C 20.905,9.967 11.581,0.941 0,0 m -26.31,21.412 h 5.571 C -19.396,13.007 -12.544,6.418 -4,5.52 V 0 C -15.581,0.941 -24.905,9.967 -26.31,21.412 M -4,48.824 v -5.519 c -9.211,-0.969 -16.459,-8.549 -16.949,-17.893 h -5.526 c 0.5,12.38 10.227,22.417 22.475,23.412 M 9,21.412 h 3.697 C 11.435,15.216 6.336,10.411 0,9.562 v 3.85 c 0,1.105 -0.896,2 -2,2 -1.104,0 -2,-0.895 -2,-2 v -3.85 c -6.336,0.849 -11.435,5.654 -12.697,11.85 H -13 c 1.104,0 2,0.896 2,2 0,1.105 -0.896,2 -2,2 h -3.949 c 0.473,7.136 5.948,12.912 12.949,13.851 v -3.851 c 0,-1.104 0.896,-2 2,-2 1.104,0 2,0.896 2,2 v 3.851 C 7.001,38.324 12.476,32.548 12.949,25.412 H 9 c -1.104,0 -2,-0.895 -2,-2 0,-1.104 0.896,-2 2,-2 m 13.475,4 H 16.949 C 16.459,34.756 9.211,42.336 0,43.305 v 5.519 C 12.248,47.829 21.975,37.792 22.475,25.412 m 5.525,0 H 26.475 C 25.969,39.998 14.455,51.826 0,52.834 v 1.578 c 0,1.105 -0.896,2 -2,2 -1.104,0 -2,-0.895 -2,-2 V 52.834 C -18.455,51.826 -29.969,39.998 -30.475,25.412 H -32 c -1.104,0 -2,-0.895 -2,-2 0,-1.104 0.896,-2 2,-2 h 1.659 C -28.906,7.758 -17.788,-3.049 -4,-4.01 v -1.578 c 0,-1.104 0.896,-2 2,-2 1.104,0 2,0.896 2,2 V -4.01 C 13.788,-3.049 24.906,7.758 26.341,21.412 H 28 c 1.104,0 2,0.896 2,2 0,1.105 -0.896,2 -2,2" /></g></g></g></g></svg>