<svg width="48px" height="43px" viewBox="0 0 48 43" version="1.1" xmlns="http://www.w3.org/2000/svg" xmlns:xlink="http://www.w3.org/1999/xlink">
    <!-- Generator: Sketch 50.2 (55047) - http://www.bohemiancoding.com/sketch -->
    <desc>Created with Sketch.</desc>
    <defs>
        <polygon id="path-1" points="0 0.35538434 46.3942212 0.35538434 46.3942212 27.2795466 46.3942212 42.9577465 0 42.9577465"></polygon>
    </defs>
    <g id="ALL-PAGES" stroke="none" stroke-width="1" fill="none" fill-rule="evenodd">
        <g id="SEND-MONEY-TO-BANK" transform="translate(-1060.000000, -2264.000000)">
            <g id="Icon/Money-in-minutes-icon---MINT" transform="translate(1046.000000, 2260.000000)">
                <g id="Icon-Mint/Wallet" transform="translate(14.000000, 3.000000)">
                    <g id="Group-5" transform="translate(0.746479, 0.732394)">
                        <mask id="mask-2" fill="white">
                            <use xlink:href="#path-1"></use>
                        </mask>
                        <g id="Clip-4"></g>
                        <path d="M3.5106037,5.93770709 C3.5106037,4.82080568 4.44646505,3.88083194 5.55775511,3.88083194 L31.2413863,3.88083194 L31.2413863,7.99458224 L5.55775511,7.99458224 C4.44646505,7.99458224 3.5106037,7.0538804 3.5106037,5.93770709 Z M36.8000113,32.2038207 C33.2892626,32.2038207 30.4809536,29.3838995 30.4809536,25.8577238 C30.4809536,22.3322762 33.2892626,19.5116269 36.8000113,19.5116269 L46.3942212,19.5116269 L46.3942212,9.75730604 C46.3942212,8.75835641 45.6337886,7.99458224 44.6392093,7.99458224 L34.7521349,7.99458224 L34.7521349,2.11810814 C34.7521349,1.11915851 33.9917023,0.35538434 32.9971231,0.35538434 L5.55775511,0.35538434 C2.51602447,0.35538434 -0.000144982394,2.88188231 -0.000144982394,5.93770709 L-0.000144982394,37.3754965 C-0.000144982394,40.4305932 2.51602447,42.9578193 5.55775511,42.9578193 L44.6392093,42.9578193 C45.6337886,42.9578193 46.3942212,42.1940451 46.3942212,41.1950955 L46.3942212,32.2038207 L36.8000113,32.2038207 Z" id="Fill-3" fill="#00C8C3" mask="url(#mask-2)"></path>
                        <path d="M34.3661972,26.2042254 C34.3661972,27.8334927 35.6140784,29.2112676 37.0897419,29.2112676 L46.3943662,29.2112676 L46.3943662,23.1971831 L37.0897419,23.1971831 C35.6140784,23.1971831 34.3661972,24.574958 34.3661972,26.2042254" id="Fill-1" fill="#00C8C3" mask="url(#mask-2)"></path>
                    </g>
                </g>
            </g>
        </g>
    </g>
</svg>